<svg xmlns="http://www.w3.org/2000/svg" viewBox="0 -90 600 600" role="img" aria-label="Mechanical keyboard">
  <defs>
    <linearGradient id="bg" x1="0" y1="0" x2="1" y2="1"><stop offset="0" stop-color="#dfe6f3"/><stop offset="1" stop-color="#b9c6e2"/></linearGradient>
  </defs>
  <rect x="0" y="-90" width="600" height="600" fill="url(#bg)"/>
  <ellipse cx="300" cy="352" rx="230" ry="18" fill="#1b1f3b" opacity=".14"/>
  <g transform="rotate(-6 300 210)">
    <rect x="60" y="120" width="480" height="190" rx="22" fill="#1b1f3b"/>
    <g fill="#f4f5f9">
      <g id="row"><rect x="80" y="140" width="40" height="34" rx="7"/><rect x="126" y="140" width="40" height="34" rx="7"/><rect x="172" y="140" width="40" height="34" rx="7"/><rect x="218" y="140" width="40" height="34" rx="7"/><rect x="264" y="140" width="40" height="34" rx="7"/><rect x="310" y="140" width="40" height="34" rx="7"/><rect x="356" y="140" width="40" height="34" rx="7"/><rect x="402" y="140" width="40" height="34" rx="7"/><rect x="448" y="140" width="72" height="34" rx="7" fill="#f2a900"/></g>
      <use href="#row" y="46"/>
      <use href="#row" y="92"/>
      <rect x="80" y="278" width="62" height="20" rx="7" fill="#f4f5f9"/><rect x="148" y="278" width="236" height="20" rx="7"/><rect x="390" y="278" width="130" height="20" rx="7"/>
    </g>
  </g>
</svg>
